<?xml version="1.0" standalone="no"?>
<!DOCTYPE svg PUBLIC "-//W3C//DTD SVG 20010904//EN"
 "http://www.w3.org/TR/2001/REC-SVG-20010904/DTD/svg10.dtd">
<svg version="1.0" xmlns="http://www.w3.org/2000/svg"
 width="318.000000pt" height="318.000000pt" viewBox="0 0 318.000000 318.000000"
 preserveAspectRatio="xMidYMid meet">
<metadata>
Created by potrace 1.11, written by Peter Selinger 2001-2013
</metadata>
<g transform="translate(0.000000,318.000000) scale(0.100000,-0.100000)"
fill="#000000" stroke="none">
<path d="M745 2879 c-55 -27 -102 -75 -131 -134 l-24 -51 3 -780 c1 -428 6
-795 10 -814 43 -199 142 -377 291 -526 149 -149 335 -249 526 -284 71 -13
248 -16 320 -5 206 30 398 130 550 285 93 94 90 91 142 170 60 91 116 222 134
314 28 141 30 282 4 422 -67 374 -358 669 -755 764 -78 19 -112 22 -225 22
-137 1 -193 -8 -260 -38 -70 -32 -126 -85 -156 -149 -77 -161 50 -358 231
-360 33 0 80 4 104 8 100 19 181 7 278 -39 295 -141 357 -517 121 -743 -146
-141 -360 -171 -536 -73 -63 35 -162 136 -191 195 -51 106 -51 101 -51 878 0
798 1 788 -61 862 -17 21 -54 51 -83 67 -44 26 -61 30 -126 30 -54 -1 -86 -6
-115 -21z"/>
</g>
</svg>
